<svg width="18" height="18" viewBox="0 0 18 18" fill="none" xmlns="http://www.w3.org/2000/svg">
<path d="M11.25 2.78938e-05C11.7816 -0.000153903 12.3046 0.134196 12.7702 0.390564C13.2359 0.646933 13.6291 1.01698 13.9133 1.46625C14.1974 1.91551 14.3633 2.42938 14.3953 2.96C14.4274 3.49061 14.3247 4.02071 14.0967 4.50093L17.1 4.50003C17.3387 4.50003 17.5676 4.59485 17.7364 4.76363C17.9052 4.93242 18 5.16133 18 5.40003V9.00003C18 9.23872 17.9052 9.46764 17.7364 9.63642C17.5676 9.80521 17.3387 9.90003 17.1 9.90003H16.2V17.1C16.2 17.3387 16.1052 17.5676 15.9364 17.7364C15.7676 17.9052 15.5387 18 15.3 18H2.7C2.46131 18 2.23239 17.9052 2.0636 17.7364C1.89482 17.5676 1.8 17.3387 1.8 17.1V9.90003H0.9C0.661305 9.90003 0.432387 9.80521 0.263604 9.63642C0.0948211 9.46764 0 9.23872 0 9.00003V5.40003C0 5.16133 0.0948211 4.93242 0.263604 4.76363C0.432387 4.59485 0.661305 4.50003 0.9 4.50003L3.9033 4.50093C3.58268 3.82743 3.51146 3.06201 3.70233 2.34093C3.8932 1.61984 4.33376 0.989887 4.94559 0.563205C5.55742 0.136523 6.30081 -0.0591964 7.04343 0.0108887C7.78605 0.0809737 8.4797 0.412315 9.0009 0.945928C9.29343 0.645801 9.64322 0.407438 10.0296 0.24496C10.4159 0.0824814 10.8309 -0.000807198 11.25 2.78938e-05ZM14.4 9.90003H3.6V16.2H14.4V9.90003ZM16.2 6.30003H1.8V8.10003H16.2V6.30003ZM6.75 1.80003C6.4033 1.8002 6.06996 1.93375 5.81905 2.173C5.56814 2.41225 5.41889 2.73886 5.40223 3.08515C5.38557 3.43145 5.50277 3.77088 5.72956 4.03311C5.95634 4.29534 6.27532 4.46027 6.6204 4.49373L6.75 4.50003H8.1V3.15003C8.09998 2.81443 7.97497 2.49088 7.74934 2.24245C7.52371 1.99403 7.21364 1.83854 6.8796 1.80633L6.75 1.80003ZM11.25 1.80003L11.1204 1.80633C10.8084 1.83622 10.5166 1.97371 10.2949 2.19523C10.0732 2.41675 9.93552 2.70849 9.9054 3.02043L9.9 3.15003V4.50003H11.25L11.3796 4.49373C11.7135 4.46135 12.0234 4.30581 12.2489 4.0574C12.4744 3.80899 12.5993 3.48552 12.5993 3.15003C12.5993 2.81454 12.4744 2.49107 12.2489 2.24266C12.0234 1.99425 11.7135 1.8387 11.3796 1.80633L11.25 1.80003Z" fill="#17171F" fill-opacity="0.4"/>
</svg>
